<?xml version="1.0"?>
<svg width="220" height="60" xmlns="http://www.w3.org/2000/svg" xmlns:svg="http://www.w3.org/2000/svg" preserveAspectRatio="xMidYMid meet" version="1.0">
 <title>logo</title>
 <defs>
  <linearGradient id="svg_1" spreadMethod="pad">
   <stop id="jq_stop_845" offset="0" stop-color="#007fba"/>
   <stop id="jq_stop_932" offset="1" stop-color="#00bf00"/>
  </linearGradient>
 </defs>
 <metadata>Created by potrace 1.10, written by Peter Selinger 2001-2011</metadata>
 <g class="layer">
  <title>Layer 1</title>
  <line fill="none" id="svg_22" x1="115.33" x2="113.33" y1="25" y2="26"/>
  <line fill="none" id="svg_24" x1="29.33" x2="44.33" y1="37" y2="48"/>
  <rect fill="#ffffff" height="74" id="svg_11" width="257" x="26.12" y="151.96"/>
  <text fill="url(#svg_1)" font-family="Monospace" font-size="16" font-style="normal" font-weight="bold" id="svg_27" stroke-width="0" text-anchor="middle" transform="matrix(1.31904 0 0 1.53622 -81.2737 -43.1703)" word-spacing="3" x="171.7" xml:space="preserve" y="52.54">RESERVASALUD</text>
  <path d="m15.44,7.8c-7.35,3.32 -10.64,14.44 -6.69,22.46c2.63,5.27 7.57,10.2 17.77,17.53c9.22,6.42 9.22,6.53 11.52,4.36c1.32,-1.26 5.04,-3.89 8.23,-6.07c11.74,-7.68 18.65,-18.1 17.22,-26.13c-2.41,-13.29 -16.78,-18.22 -25.34,-8.71c-3.07,3.32 -3.73,3.55 -4.28,1.83c-1.75,-5.5 -11.52,-8.36 -18.43,-5.27l-0.01,0l0.01,0zm10.86,1.61c1.86,0.69 4.5,3.21 6.14,5.85l2.96,4.7c0.91,-1.56 1.83,-3.13 2.74,-4.7c6.91,-11.35 21.66,-9.14 18.37,7.91c-3.29,17.05 -0.82,13.52 -13.88,22.23l-7.35,5.04l-6.8,-4.47c-3.62,-2.52 -7.9,-5.73 -12.4,-10.31c-4.5,-4.58 -6.1,-9.62 -6.36,-10.54c-0.26,-0.92 3.62,-20.51 12.18,-16.73c8.56,3.78 2.63,0.46 4.39,1.03l0,-0.01l0.01,0z" fill="#007fba" id="svg_2" transform="matrix(1 0 0 1 0 0)"/>
  <g id="svg_26">
   <path d="m31.9,35.38c3.12,1.08 15.43,-11 17.09,-12.41c1.67,-1.4 -17.09,12.41 -17.09,12.41z" fill="#007fba" id="svg_17"/>
   <path d="m28.57,28.37l6.67,6.47l-6.67,-6.47z" fill="#007fba" id="svg_20"/>
   <path d="m32.32,34.3l-3.96,-6.47l3.96,6.47z" fill="#007fba" id="svg_21"/>
   <line fill="#007fba" id="svg_23" x1="32.32" x2="26.69" y1="34.84" y2="29.99"/>
   <path d="m25.05,27.12c-2.08,0 8.75,8.84 9.22,8.7c0.47,-0.15 -7.13,-8.7 -9.22,-8.7z" fill="#007fba" id="svg_25"/>
  </g>
 </g>
</svg>